<?xml version="1.0" encoding="UTF-8"?>
<!DOCTYPE svg PUBLIC "-//W3C//DTD SVG 1.1//EN" "http://www.w3.org/Graphics/SVG/1.1/DTD/svg11.dtd">
<!-- Creator: CorelDRAW 2019 (64-Bit) -->
<svg xmlns="http://www.w3.org/2000/svg" xml:space="preserve" width="175mm" height="12mm" version="1.1" style="shape-rendering:geometricPrecision; text-rendering:geometricPrecision; image-rendering:optimizeQuality; fill-rule:evenodd; clip-rule:evenodd"
viewBox="0 0 17500 1200"
 xmlns:xlink="http://www.w3.org/1999/xlink"
 xmlns:xodm="http://www.corel.com/coreldraw/odm/2003">
 <defs>
  <style type="text/css">
   <![CDATA[
    .fil0 {fill:#3D9FD3}
   ]]>
  </style>
 </defs>
 <g id="Слой_x0020_1">
  <metadata id="CorelCorpID_0Corel-Layer"/>
  <g id="_2310754054384">
   <path class="fil0" d="M314.59 492.45l-187.07 620.08c-18.03,59.68 110.87,85.36 127.83,32.56l88.38 -275.45 998.98 6.63 -73.88 247.97c-21.15,84.14 133.41,83.68 154.71,8.36l189.02 -637.25c13.76,-46.44 -118.82,-67.79 -134.35,-19.66l-83.48 259.41 -993.45 -9.48 56.25 -218.41c13.49,-52.4 -118.28,-96.48 -142.94,-14.76zm1278.22 590.63l640.81 -598.9c79.95,-74.68 235.57,-123.32 289.01,-3.93l247.12 551.77c39.91,89.19 -82.86,201.52 -135.07,81.27l-224.99 -518.53c-9,-20.73 -54.36,-38.24 -72.92,-21.44l-644.56 583.81c-50.78,46 -145.29,-31.18 -99.4,-74.05zm1378.08 21.69l148.86 -494.53c21.13,-70.23 63.54,-165.46 145.57,-158.48 86.88,7.39 225.44,92.38 346.55,186.46l431.36 335.15c44.58,36.62 44.29,44.21 61.91,-12.93l142.59 -462.51c32.19,-104.31 186.84,-84.25 153.75,15.15l-205.49 616.97c-39.27,69.19 -123.5,72.73 -179.84,29.3l-660.42 -509.02c-36.3,-28.44 -92.91,-34.34 -107.64,17.57l-134.16 471.97c-16.85,59.33 -159.64,20.09 -143.04,-35.1zm1697.49 -653.16l1061.06 10.46c194.04,1.87 169.58,264.63 129.12,392.24 -39.28,123.85 -153.15,310.36 -303.53,309.63l-1085.32 -5.07c-46.47,-0.22 -45.4,9.09 -32.45,-32.49l105.71 -340.17c36.07,-115.97 173.3,-46.14 148.68,20.09l-49.44 213.57c255.72,34.09 490.93,15.53 744.94,13.64 159.78,-1.19 220.68,-12.74 288.42,-129.58 81.63,-140.82 123.84,-316.09 -72.71,-315.08l-929.91 5.04c-134.81,-25.61 -70.63,-136.81 -4.57,-142.28zm5347.68 10.99l1054.02 0c61.94,0 25.13,131.82 -28.07,131.42l-1040.18 1.47c-115.88,0.12 -133.84,142.36 -21.95,140.34l840.8 -7.29c342.79,6.41 224.81,441 -41.2,435.53l-1057.78 -2.57c-84.84,-0.22 -78.67,-135.81 18.51,-136.14l1009.47 -3.8c82.75,0.43 150.87,-28.12 120.94,-122.16 -11.59,-36.42 -129.22,-28.82 -166.83,-27.97l-780.97 3.58c-111.55,-7.66 -183.34,-117.85 -177.59,-222.47 10.14,-29.5 20.19,-61.12 29.62,-93.67 38.25,-59.36 115.06,-101.67 241.21,-96.27zm1420.13 292.9c53.17,-85.54 112.23,-168.82 224.56,-169.92l647.53 0.77c297.19,14.43 146.53,316.9 8.45,416.91 -26.53,19.21 -47.27,42.99 -78.99,43.18l-742.09 -2.14c-58.71,-0.93 -111.12,-62.25 -114.31,-116.23 -3.55,-58.75 25.52,-125.37 54.85,-172.57zm-190.98 120.42c55.05,-157.61 183.66,-407.62 358.02,-411.17l857.35 -8.04c187.01,3.07 173.86,281.56 118.23,402.47 -37.89,89.2 -198.33,308.92 -318.43,299.57l-874.07 2.58c-14.8,0.05 -26.22,-3.81 -36.25,-10.1 -81.09,-51.05 -137.43,-182.22 -104.85,-275.31zm3015.49 214.43l148.86 -494.52c21.13,-70.24 63.54,-165.47 145.57,-158.49 86.88,7.39 225.44,92.38 346.55,186.46l431.36 335.15c44.58,36.62 44.3,44.21 61.91,-12.93l142.59 -462.51c32.19,-104.31 186.84,-84.25 153.75,15.15l-205.49 616.97c-39.27,69.19 -123.5,72.73 -179.84,29.3l-660.42 -509.02c-36.3,-28.43 -92.91,-34.33 -107.64,17.57l-134.16 471.97c-16.85,59.33 -159.64,20.09 -143.04,-35.1zm1697.49 -653.16l1061.06 10.46c194.04,1.87 169.58,264.63 129.12,392.24 -39.27,123.85 -153.15,310.36 -303.53,309.63l-1085.32 -5.07c-46.47,-0.22 -45.4,9.1 -32.45,-32.49l105.71 -340.17c36.07,-115.97 173.31,-46.13 148.68,20.09l-49.44 213.57c255.72,34.09 490.93,15.53 744.94,13.64 159.78,-1.19 220.68,-12.74 288.42,-129.58 81.63,-140.82 123.84,-316.09 -72.71,-315.08l-929.91 5.04c-134.81,-25.61 -70.63,-136.81 -4.57,-142.28z"/>
   <path class="fil0" d="M12907.53 483.58l-124.35 365.74c-49.25,145.66 21.42,315.96 187.56,314.95l785.29 -4.91c275.12,8.4 361.43,-301.75 438.63,-509.21 9.25,-23.95 26.37,-83.99 24.79,-118.64 -2.42,-52.9 -89.37,-56.08 -103.96,-25.29 -66.85,141.18 -103.28,299.63 -198.6,435.18 -33.23,47.31 -82.07,80.71 -143.29,80.71l-752.72 0c-86.75,0 -127.84,-76.07 -97.54,-148.81l102.09 -325.39c45.4,-127.54 -95.63,-129.64 -117.9,-64.33z"/>
   <path class="fil0" d="M14114.37 485.57l-124.35 365.74c-101.13,145.71 -186.38,240.77 -170.56,261.91 6.11,8.21 -17.59,36.63 0.58,32.55 176.91,-39.79 283.01,-219.37 337.6,-378.42l74.62 -217.45c45.41,-127.54 -95.62,-129.65 -117.89,-64.33z"/>
   <path class="fil0" d="M7861.07 172.64l-165.78 515.53c-65.67,205.3 28.54,445.34 250.05,443.92l1046.99 -6.91c366.81,11.84 481.88,-425.34 584.8,-717.75 12.33,-33.75 35.15,-118.39 33.05,-167.23 -3.22,-74.56 -119.16,-79.05 -138.6,-35.65 -89.13,199 -137.7,422.34 -264.79,613.4 -44.3,66.69 -109.42,113.76 -191.04,113.76l-1003.55 0c-115.67,0 -170.44,-107.22 -130.05,-209.74l136.1 -458.64c60.55,-179.78 -127.49,-182.75 -157.18,-90.69z"/>
   <path class="fil0" d="M9470.08 175.45l-165.78 515.52c-134.83,205.38 -248.49,339.37 -227.41,369.17 8.15,11.57 -23.44,51.63 0.77,45.88 235.87,-56.09 377.33,-309.21 450.11,-533.39l99.49 -306.5c60.54,-179.78 -127.49,-182.74 -157.18,-90.68z"/>
   <path class="fil0" d="M6178.83 603.78c-64.4,-57.14 -17.97,-223.47 139.01,-58.05 362.69,382.31 704.98,167.94 1081.95,-87.44 102.43,-44.55 164.53,47.99 46.3,132.96 -104.01,74.86 -262.81,177.35 -379.08,224.03 -52.87,21.2 -118.71,42.08 -220.98,64.17l-122.34 279.2c-21.25,57.9 -171.48,54.92 -149.49,-8.97l107.91 -261.13c-1.56,-0.73 -8.47,-2.17 -17.07,-3.75 -199.32,-36.94 -338.37,-149.81 -486.21,-281.02z"/>
  </g>
 </g>
</svg>
